<mxfile host="Electron" agent="Mozilla/5.0 (X11; Linux x86_64) AppleWebKit/537.36 (KHTML, like Gecko) draw.io/28.2.5 Chrome/138.0.7204.251 Electron/37.6.1 Safari/537.36" version="28.2.5" pages="4">
  <diagram name="Paso 0" id="uVoO6l-Rrtz2URVDu3uX">
    <mxGraphModel dx="1370" dy="843" grid="1" gridSize="10" guides="1" tooltips="1" connect="1" arrows="1" fold="1" page="1" pageScale="1" pageWidth="850" pageHeight="1100" math="0" shadow="0">
      <root>
        <mxCell id="0" />
        <mxCell id="1" parent="0" />
        <mxCell id="wHTxtWTM5mLriVB6iBk--2" value="&lt;font style=&quot;font-size: 24px;&quot;&gt;index&lt;/font&gt;" style="text;html=1;align=center;verticalAlign=middle;whiteSpace=wrap;rounded=0;fontSize=16;fontFamily=Cascadia Code;fontColor=#4D4D4D;container=0;" vertex="1" parent="1">
          <mxGeometry x="150" y="260" width="110" height="50" as="geometry" />
        </mxCell>
        <mxCell id="wHTxtWTM5mLriVB6iBk--3" value="&lt;span style=&quot;color: rgb(77, 77, 77); font-family: &amp;quot;Cascadia Code&amp;quot;; font-size: 40px;&quot;&gt;?&lt;/span&gt;" style="rounded=0;whiteSpace=wrap;html=1;strokeWidth=1;fillColor=#DFEAF2;" vertex="1" parent="1">
          <mxGeometry x="385" y="305" width="120" height="70" as="geometry" />
        </mxCell>
        <mxCell id="wHTxtWTM5mLriVB6iBk--4" value="&lt;font face=&quot;Cascadia Code&quot; style=&quot;color: rgb(77, 77, 77);&quot;&gt;1&lt;/font&gt;" style="rounded=0;whiteSpace=wrap;html=1;strokeWidth=1;fillColor=#DFEAF2;fontSize=22;" vertex="1" parent="1">
          <mxGeometry x="385" y="265" width="120" height="40" as="geometry" />
        </mxCell>
        <mxCell id="wHTxtWTM5mLriVB6iBk--5" value="&lt;span style=&quot;color: rgb(77, 77, 77); font-family: &amp;quot;Cascadia Code&amp;quot;; font-size: 40px;&quot;&gt;?&lt;/span&gt;" style="rounded=0;whiteSpace=wrap;html=1;strokeWidth=1;fillColor=#DFEAF2;" vertex="1" parent="1">
          <mxGeometry x="505" y="305" width="120" height="70" as="geometry" />
        </mxCell>
        <mxCell id="wHTxtWTM5mLriVB6iBk--6" value="&lt;font face=&quot;Cascadia Code&quot; style=&quot;color: rgb(77, 77, 77);&quot;&gt;2&lt;/font&gt;" style="rounded=0;whiteSpace=wrap;html=1;strokeWidth=1;fillColor=#DFEAF2;fontSize=22;" vertex="1" parent="1">
          <mxGeometry x="505" y="265" width="120" height="40" as="geometry" />
        </mxCell>
        <mxCell id="wHTxtWTM5mLriVB6iBk--7" value="&lt;span style=&quot;color: rgb(77, 77, 77); font-family: &amp;quot;Cascadia Code&amp;quot;; font-size: 40px;&quot;&gt;?&lt;/span&gt;" style="rounded=0;whiteSpace=wrap;html=1;strokeWidth=1;fillColor=#DFEAF2;" vertex="1" parent="1">
          <mxGeometry x="625" y="305" width="120" height="70" as="geometry" />
        </mxCell>
        <mxCell id="wHTxtWTM5mLriVB6iBk--8" value="&lt;font face=&quot;Cascadia Code&quot; style=&quot;color: rgb(77, 77, 77);&quot;&gt;3&lt;/font&gt;" style="rounded=0;whiteSpace=wrap;html=1;strokeWidth=1;fillColor=#DFEAF2;fontSize=22;" vertex="1" parent="1">
          <mxGeometry x="625" y="265" width="120" height="40" as="geometry" />
        </mxCell>
        <mxCell id="wHTxtWTM5mLriVB6iBk--9" value="&lt;span style=&quot;color: rgb(77, 77, 77); font-family: &amp;quot;Cascadia Code&amp;quot;; font-size: 40px;&quot;&gt;?&lt;/span&gt;" style="rounded=0;whiteSpace=wrap;html=1;strokeWidth=1;fillColor=#DFEAF2;" vertex="1" parent="1">
          <mxGeometry x="745" y="305" width="120" height="70" as="geometry" />
        </mxCell>
        <mxCell id="wHTxtWTM5mLriVB6iBk--10" value="&lt;font face=&quot;Cascadia Code&quot; style=&quot;color: rgb(77, 77, 77);&quot;&gt;4&lt;/font&gt;" style="rounded=0;whiteSpace=wrap;html=1;strokeWidth=1;fillColor=#DFEAF2;fontSize=22;" vertex="1" parent="1">
          <mxGeometry x="745" y="265" width="120" height="40" as="geometry" />
        </mxCell>
        <mxCell id="wHTxtWTM5mLriVB6iBk--11" value="&lt;span style=&quot;color: rgb(77, 77, 77); font-family: &amp;quot;Cascadia Code&amp;quot;;&quot;&gt;&lt;font style=&quot;font-size: 40px;&quot;&gt;?&lt;/font&gt;&lt;/span&gt;" style="rounded=0;whiteSpace=wrap;html=1;strokeWidth=1;fillColor=#DFEAF2;" vertex="1" parent="1">
          <mxGeometry x="265" y="305" width="120" height="70" as="geometry" />
        </mxCell>
        <mxCell id="wHTxtWTM5mLriVB6iBk--12" value="&lt;font style=&quot;color: rgb(77, 77, 77);&quot; face=&quot;Cascadia Code&quot;&gt;0&lt;/font&gt;" style="rounded=0;whiteSpace=wrap;html=1;strokeWidth=1;fillColor=#DFEAF2;fontSize=22;" vertex="1" parent="1">
          <mxGeometry x="265" y="265" width="120" height="40" as="geometry" />
        </mxCell>
      </root>
    </mxGraphModel>
  </diagram>
  <diagram id="4YhhPSIfcv4ftdWsudG_" name="Paso 1">
    <mxGraphModel dx="783" dy="482" grid="1" gridSize="10" guides="1" tooltips="1" connect="1" arrows="1" fold="1" page="1" pageScale="1" pageWidth="850" pageHeight="1100" math="0" shadow="0">
      <root>
        <mxCell id="0" />
        <mxCell id="1" parent="0" />
        <mxCell id="j-SN0zqpJROhjW9rVyUO-1" value="&lt;font style=&quot;font-size: 24px;&quot;&gt;index&lt;/font&gt;" style="text;html=1;align=center;verticalAlign=middle;whiteSpace=wrap;rounded=0;fontSize=16;fontFamily=Cascadia Code;fontColor=#4D4D4D;container=0;" parent="1" vertex="1">
          <mxGeometry x="230" y="240" width="110" height="50" as="geometry" />
        </mxCell>
        <mxCell id="j-SN0zqpJROhjW9rVyUO-2" value="&lt;span style=&quot;color: rgb(77, 77, 77); font-family: &amp;quot;Cascadia Code&amp;quot;; font-size: 40px;&quot;&gt;?&lt;/span&gt;" style="rounded=0;whiteSpace=wrap;html=1;strokeWidth=1;fillColor=#DFEAF2;" parent="1" vertex="1">
          <mxGeometry x="465" y="285" width="120" height="70" as="geometry" />
        </mxCell>
        <mxCell id="j-SN0zqpJROhjW9rVyUO-3" value="&lt;font face=&quot;Cascadia Code&quot; style=&quot;color: rgb(77, 77, 77);&quot;&gt;1&lt;/font&gt;" style="rounded=0;whiteSpace=wrap;html=1;strokeWidth=1;fillColor=#DFEAF2;fontSize=22;" parent="1" vertex="1">
          <mxGeometry x="465" y="245" width="120" height="40" as="geometry" />
        </mxCell>
        <mxCell id="j-SN0zqpJROhjW9rVyUO-4" value="&lt;span style=&quot;color: rgb(77, 77, 77); font-family: &amp;quot;Cascadia Code&amp;quot;; font-size: 40px;&quot;&gt;?&lt;/span&gt;" style="rounded=0;whiteSpace=wrap;html=1;strokeWidth=1;fillColor=#DFEAF2;" parent="1" vertex="1">
          <mxGeometry x="585" y="285" width="120" height="70" as="geometry" />
        </mxCell>
        <mxCell id="j-SN0zqpJROhjW9rVyUO-5" value="&lt;font face=&quot;Cascadia Code&quot; style=&quot;color: rgb(77, 77, 77);&quot;&gt;2&lt;/font&gt;" style="rounded=0;whiteSpace=wrap;html=1;strokeWidth=1;fillColor=#DFEAF2;fontSize=22;" parent="1" vertex="1">
          <mxGeometry x="585" y="245" width="120" height="40" as="geometry" />
        </mxCell>
        <mxCell id="j-SN0zqpJROhjW9rVyUO-6" value="&lt;span style=&quot;color: rgb(77, 77, 77); font-family: &amp;quot;Cascadia Code&amp;quot;; font-size: 40px;&quot;&gt;?&lt;/span&gt;" style="rounded=0;whiteSpace=wrap;html=1;strokeWidth=1;fillColor=#DFEAF2;" parent="1" vertex="1">
          <mxGeometry x="705" y="285" width="120" height="70" as="geometry" />
        </mxCell>
        <mxCell id="j-SN0zqpJROhjW9rVyUO-7" value="&lt;font face=&quot;Cascadia Code&quot; style=&quot;color: rgb(77, 77, 77);&quot;&gt;3&lt;/font&gt;" style="rounded=0;whiteSpace=wrap;html=1;strokeWidth=1;fillColor=#DFEAF2;fontSize=22;" parent="1" vertex="1">
          <mxGeometry x="705" y="245" width="120" height="40" as="geometry" />
        </mxCell>
        <mxCell id="j-SN0zqpJROhjW9rVyUO-8" value="&lt;span style=&quot;color: rgb(77, 77, 77); font-family: &amp;quot;Cascadia Code&amp;quot;; font-size: 40px;&quot;&gt;?&lt;/span&gt;" style="rounded=0;whiteSpace=wrap;html=1;strokeWidth=1;fillColor=#DFEAF2;" parent="1" vertex="1">
          <mxGeometry x="825" y="285" width="120" height="70" as="geometry" />
        </mxCell>
        <mxCell id="j-SN0zqpJROhjW9rVyUO-9" value="&lt;font face=&quot;Cascadia Code&quot; style=&quot;color: rgb(77, 77, 77);&quot;&gt;4&lt;/font&gt;" style="rounded=0;whiteSpace=wrap;html=1;strokeWidth=1;fillColor=#DFEAF2;fontSize=22;" parent="1" vertex="1">
          <mxGeometry x="825" y="245" width="120" height="40" as="geometry" />
        </mxCell>
        <mxCell id="j-SN0zqpJROhjW9rVyUO-10" value="&lt;span style=&quot;color: rgb(77, 77, 77); font-family: &amp;quot;Cascadia Code&amp;quot;; font-size: 18px;&quot;&gt;&quot;nueces&quot;&lt;/span&gt;" style="rounded=0;whiteSpace=wrap;html=1;strokeWidth=1;fillColor=#DFEAF2;" parent="1" vertex="1">
          <mxGeometry x="345" y="285" width="120" height="70" as="geometry" />
        </mxCell>
        <mxCell id="j-SN0zqpJROhjW9rVyUO-11" value="&lt;font style=&quot;color: rgb(77, 77, 77);&quot; face=&quot;Cascadia Code&quot;&gt;0&lt;/font&gt;" style="rounded=0;whiteSpace=wrap;html=1;strokeWidth=1;fillColor=#DFEAF2;fontSize=22;" parent="1" vertex="1">
          <mxGeometry x="345" y="245" width="120" height="40" as="geometry" />
        </mxCell>
        <mxCell id="Tm5OImrnJ3ABSPv36tUJ-1" value="" style="group" vertex="1" connectable="0" parent="1">
          <mxGeometry x="373" y="110" width="200" height="120" as="geometry" />
        </mxCell>
        <mxCell id="Tm5OImrnJ3ABSPv36tUJ-2" value="" style="group" vertex="1" connectable="0" parent="Tm5OImrnJ3ABSPv36tUJ-1">
          <mxGeometry width="200" height="100" as="geometry" />
        </mxCell>
        <mxCell id="Tm5OImrnJ3ABSPv36tUJ-3" value="&lt;font style=&quot;font-size: 32px;&quot;&gt;🕵🏻&lt;/font&gt;" style="text;html=1;align=center;verticalAlign=middle;whiteSpace=wrap;rounded=0;" vertex="1" parent="Tm5OImrnJ3ABSPv36tUJ-2">
          <mxGeometry y="40" width="70" height="60" as="geometry" />
        </mxCell>
        <mxCell id="Tm5OImrnJ3ABSPv36tUJ-4" value="&lt;font style=&quot;color: rgb(77, 77, 77);&quot;&gt;&lt;span style=&quot;font-family: &amp;quot;Cascadia Code&amp;quot;; font-size: 18px;&quot;&gt;¿&lt;/span&gt;&lt;font style=&quot;font-family: &amp;quot;Cascadia Code&amp;quot;; font-size: 18px; color: rgb(77, 77, 77);&quot;&gt;&quot;pistachos&quot;&lt;/font&gt;&lt;span style=&quot;font-family: &amp;quot;Cascadia Code&amp;quot;; font-size: 18px;&quot;&gt;?&lt;/span&gt;&lt;/font&gt;" style="whiteSpace=wrap;html=1;shape=mxgraph.basic.roundRectCallout;dx=30;dy=15;size=5;boundedLbl=1;" vertex="1" parent="Tm5OImrnJ3ABSPv36tUJ-2">
          <mxGeometry x="40" width="160" height="60" as="geometry" />
        </mxCell>
        <mxCell id="Tm5OImrnJ3ABSPv36tUJ-5" value="" style="endArrow=classic;html=1;rounded=0;strokeWidth=2;strokeColor=#4D4D4D;" edge="1" parent="Tm5OImrnJ3ABSPv36tUJ-1">
          <mxGeometry width="50" height="50" relative="1" as="geometry">
            <mxPoint x="30.900000000000006" y="90" as="sourcePoint" />
            <mxPoint x="30.900000000000006" y="120" as="targetPoint" />
          </mxGeometry>
        </mxCell>
      </root>
    </mxGraphModel>
  </diagram>
  <diagram id="d1yndhSN_6jmL66zDgej" name="Paso 2">
    <mxGraphModel dx="783" dy="482" grid="1" gridSize="10" guides="1" tooltips="1" connect="1" arrows="1" fold="1" page="1" pageScale="1" pageWidth="850" pageHeight="1100" math="0" shadow="0">
      <root>
        <mxCell id="0" />
        <mxCell id="1" parent="0" />
        <mxCell id="f-izOL88xjpIMGYn8ofs-1" value="&lt;font style=&quot;font-size: 24px;&quot;&gt;index&lt;/font&gt;" style="text;html=1;align=center;verticalAlign=middle;whiteSpace=wrap;rounded=0;fontSize=16;fontFamily=Cascadia Code;fontColor=#4D4D4D;container=0;" parent="1" vertex="1">
          <mxGeometry x="430" y="570" width="110" height="50" as="geometry" />
        </mxCell>
        <mxCell id="f-izOL88xjpIMGYn8ofs-2" value="&lt;span style=&quot;color: rgb(77, 77, 77); font-family: &amp;quot;Cascadia Code&amp;quot;; font-size: 40px;&quot;&gt;?&lt;/span&gt;" style="rounded=0;whiteSpace=wrap;html=1;strokeWidth=1;fillColor=#DFEAF2;" parent="1" vertex="1">
          <mxGeometry x="785" y="615" width="120" height="70" as="geometry" />
        </mxCell>
        <mxCell id="f-izOL88xjpIMGYn8ofs-3" value="&lt;font face=&quot;Cascadia Code&quot; style=&quot;color: rgb(77, 77, 77);&quot;&gt;2&lt;/font&gt;" style="rounded=0;whiteSpace=wrap;html=1;strokeWidth=1;fillColor=#DFEAF2;fontSize=22;" parent="1" vertex="1">
          <mxGeometry x="785" y="575" width="120" height="40" as="geometry" />
        </mxCell>
        <mxCell id="f-izOL88xjpIMGYn8ofs-4" value="&lt;span style=&quot;color: rgb(77, 77, 77); font-family: &amp;quot;Cascadia Code&amp;quot;; font-size: 40px;&quot;&gt;?&lt;/span&gt;" style="rounded=0;whiteSpace=wrap;html=1;strokeWidth=1;fillColor=#DFEAF2;" parent="1" vertex="1">
          <mxGeometry x="905" y="615" width="120" height="70" as="geometry" />
        </mxCell>
        <mxCell id="f-izOL88xjpIMGYn8ofs-5" value="&lt;font face=&quot;Cascadia Code&quot; style=&quot;color: rgb(77, 77, 77);&quot;&gt;3&lt;/font&gt;" style="rounded=0;whiteSpace=wrap;html=1;strokeWidth=1;fillColor=#DFEAF2;fontSize=22;" parent="1" vertex="1">
          <mxGeometry x="905" y="575" width="120" height="40" as="geometry" />
        </mxCell>
        <mxCell id="f-izOL88xjpIMGYn8ofs-6" value="&lt;span style=&quot;color: rgb(77, 77, 77); font-family: &amp;quot;Cascadia Code&amp;quot;; font-size: 40px;&quot;&gt;?&lt;/span&gt;" style="rounded=0;whiteSpace=wrap;html=1;strokeWidth=1;fillColor=#DFEAF2;" parent="1" vertex="1">
          <mxGeometry x="1025" y="615" width="120" height="70" as="geometry" />
        </mxCell>
        <mxCell id="f-izOL88xjpIMGYn8ofs-7" value="&lt;font face=&quot;Cascadia Code&quot; style=&quot;color: rgb(77, 77, 77);&quot;&gt;4&lt;/font&gt;" style="rounded=0;whiteSpace=wrap;html=1;strokeWidth=1;fillColor=#DFEAF2;fontSize=22;" parent="1" vertex="1">
          <mxGeometry x="1025" y="575" width="120" height="40" as="geometry" />
        </mxCell>
        <mxCell id="f-izOL88xjpIMGYn8ofs-8" value="&lt;span style=&quot;color: rgb(77, 77, 77); font-family: &amp;quot;Cascadia Code&amp;quot;; font-size: 18px;&quot;&gt;&quot;nueces&quot;&lt;/span&gt;" style="rounded=0;whiteSpace=wrap;html=1;strokeWidth=1;fillColor=#DFEAF2;" parent="1" vertex="1">
          <mxGeometry x="545" y="615" width="120" height="70" as="geometry" />
        </mxCell>
        <mxCell id="f-izOL88xjpIMGYn8ofs-9" value="&lt;font style=&quot;color: rgb(77, 77, 77);&quot; face=&quot;Cascadia Code&quot;&gt;0&lt;/font&gt;" style="rounded=0;whiteSpace=wrap;html=1;strokeWidth=1;fillColor=#DFEAF2;fontSize=22;" parent="1" vertex="1">
          <mxGeometry x="545" y="575" width="120" height="40" as="geometry" />
        </mxCell>
        <mxCell id="f-izOL88xjpIMGYn8ofs-10" value="&lt;span style=&quot;color: rgb(77, 77, 77); font-family: &amp;quot;Cascadia Code&amp;quot;; font-size: 18px;&quot;&gt;&quot;almendras&quot;&lt;/span&gt;" style="rounded=0;whiteSpace=wrap;html=1;strokeWidth=1;fillColor=#DFEAF2;" parent="1" vertex="1">
          <mxGeometry x="665" y="615" width="120" height="70" as="geometry" />
        </mxCell>
        <mxCell id="f-izOL88xjpIMGYn8ofs-11" value="&lt;font style=&quot;color: rgb(77, 77, 77);&quot; face=&quot;Cascadia Code&quot;&gt;1&lt;/font&gt;" style="rounded=0;whiteSpace=wrap;html=1;strokeWidth=1;fillColor=#DFEAF2;fontSize=22;" parent="1" vertex="1">
          <mxGeometry x="665" y="575" width="120" height="40" as="geometry" />
        </mxCell>
        <mxCell id="VRril_xIuJUTsje3vg2_-1" value="" style="group" vertex="1" connectable="0" parent="1">
          <mxGeometry x="695" y="440" width="200" height="120" as="geometry" />
        </mxCell>
        <mxCell id="VRril_xIuJUTsje3vg2_-2" value="" style="group" vertex="1" connectable="0" parent="VRril_xIuJUTsje3vg2_-1">
          <mxGeometry width="200" height="100" as="geometry" />
        </mxCell>
        <mxCell id="VRril_xIuJUTsje3vg2_-3" value="&lt;font style=&quot;font-size: 32px;&quot;&gt;🕵🏻&lt;/font&gt;" style="text;html=1;align=center;verticalAlign=middle;whiteSpace=wrap;rounded=0;" vertex="1" parent="VRril_xIuJUTsje3vg2_-2">
          <mxGeometry y="40" width="70" height="60" as="geometry" />
        </mxCell>
        <mxCell id="VRril_xIuJUTsje3vg2_-4" value="&lt;font style=&quot;color: rgb(77, 77, 77);&quot;&gt;&lt;span style=&quot;font-family: &amp;quot;Cascadia Code&amp;quot;; font-size: 18px;&quot;&gt;¿&lt;/span&gt;&lt;font style=&quot;font-family: &amp;quot;Cascadia Code&amp;quot;; font-size: 18px; color: rgb(77, 77, 77);&quot;&gt;&quot;pistachos&quot;&lt;/font&gt;&lt;span style=&quot;font-family: &amp;quot;Cascadia Code&amp;quot;; font-size: 18px;&quot;&gt;?&lt;/span&gt;&lt;/font&gt;" style="whiteSpace=wrap;html=1;shape=mxgraph.basic.roundRectCallout;dx=30;dy=15;size=5;boundedLbl=1;" vertex="1" parent="VRril_xIuJUTsje3vg2_-2">
          <mxGeometry x="40" width="160" height="60" as="geometry" />
        </mxCell>
        <mxCell id="VRril_xIuJUTsje3vg2_-5" value="" style="endArrow=classic;html=1;rounded=0;strokeWidth=2;strokeColor=#4D4D4D;" edge="1" parent="VRril_xIuJUTsje3vg2_-1">
          <mxGeometry width="50" height="50" relative="1" as="geometry">
            <mxPoint x="30.900000000000006" y="90" as="sourcePoint" />
            <mxPoint x="30.900000000000006" y="120" as="targetPoint" />
          </mxGeometry>
        </mxCell>
      </root>
    </mxGraphModel>
  </diagram>
  <diagram id="aD9nnpFXnLMbtZObiW4o" name="Paso 3">
    <mxGraphModel dx="2220" dy="843" grid="1" gridSize="10" guides="1" tooltips="1" connect="1" arrows="1" fold="1" page="1" pageScale="1" pageWidth="850" pageHeight="1100" math="0" shadow="0">
      <root>
        <mxCell id="0" />
        <mxCell id="1" parent="0" />
        <mxCell id="w9sTjTR2EAYGBuJXNtqT-1" value="&lt;font style=&quot;font-size: 24px;&quot;&gt;index&lt;/font&gt;" style="text;html=1;align=center;verticalAlign=middle;whiteSpace=wrap;rounded=0;fontSize=16;fontFamily=Cascadia Code;fontColor=#4D4D4D;container=0;" parent="1" vertex="1">
          <mxGeometry x="-110" y="910" width="110" height="50" as="geometry" />
        </mxCell>
        <mxCell id="w9sTjTR2EAYGBuJXNtqT-2" value="&lt;span style=&quot;color: rgb(77, 77, 77); font-family: &amp;quot;Cascadia Code&amp;quot;; font-size: 18px;&quot;&gt;&quot;almendras&quot;&lt;/span&gt;" style="rounded=0;whiteSpace=wrap;html=1;strokeWidth=1;fillColor=#DFEAF2;" parent="1" vertex="1">
          <mxGeometry x="125" y="955" width="120" height="70" as="geometry" />
        </mxCell>
        <mxCell id="w9sTjTR2EAYGBuJXNtqT-3" value="&lt;font face=&quot;Cascadia Code&quot; style=&quot;color: rgb(77, 77, 77);&quot;&gt;1&lt;/font&gt;" style="rounded=0;whiteSpace=wrap;html=1;strokeWidth=1;fillColor=#DFEAF2;fontSize=22;" parent="1" vertex="1">
          <mxGeometry x="125" y="915" width="120" height="40" as="geometry" />
        </mxCell>
        <mxCell id="w9sTjTR2EAYGBuJXNtqT-4" value="&lt;span style=&quot;color: rgb(77, 77, 77); font-family: &amp;quot;Cascadia Code&amp;quot;; font-size: 40px;&quot;&gt;?&lt;/span&gt;" style="rounded=0;whiteSpace=wrap;html=1;strokeWidth=1;fillColor=#DFEAF2;" parent="1" vertex="1">
          <mxGeometry x="365" y="955" width="120" height="70" as="geometry" />
        </mxCell>
        <mxCell id="w9sTjTR2EAYGBuJXNtqT-5" value="&lt;font face=&quot;Cascadia Code&quot; style=&quot;color: rgb(77, 77, 77);&quot;&gt;3&lt;/font&gt;" style="rounded=0;whiteSpace=wrap;html=1;strokeWidth=1;fillColor=#DFEAF2;fontSize=22;" parent="1" vertex="1">
          <mxGeometry x="365" y="915" width="120" height="40" as="geometry" />
        </mxCell>
        <mxCell id="w9sTjTR2EAYGBuJXNtqT-6" value="&lt;span style=&quot;color: rgb(77, 77, 77); font-family: &amp;quot;Cascadia Code&amp;quot;; font-size: 40px;&quot;&gt;?&lt;/span&gt;" style="rounded=0;whiteSpace=wrap;html=1;strokeWidth=1;fillColor=#DFEAF2;" parent="1" vertex="1">
          <mxGeometry x="485" y="955" width="120" height="70" as="geometry" />
        </mxCell>
        <mxCell id="w9sTjTR2EAYGBuJXNtqT-7" value="&lt;font face=&quot;Cascadia Code&quot; style=&quot;color: rgb(77, 77, 77);&quot;&gt;4&lt;/font&gt;" style="rounded=0;whiteSpace=wrap;html=1;strokeWidth=1;fillColor=#DFEAF2;fontSize=22;" parent="1" vertex="1">
          <mxGeometry x="485" y="915" width="120" height="40" as="geometry" />
        </mxCell>
        <mxCell id="w9sTjTR2EAYGBuJXNtqT-8" value="&lt;span style=&quot;color: rgb(77, 77, 77); font-family: &amp;quot;Cascadia Code&amp;quot;; font-size: 18px;&quot;&gt;&quot;nueces&quot;&lt;/span&gt;" style="rounded=0;whiteSpace=wrap;html=1;strokeWidth=1;fillColor=#DFEAF2;" parent="1" vertex="1">
          <mxGeometry x="5" y="955" width="120" height="70" as="geometry" />
        </mxCell>
        <mxCell id="w9sTjTR2EAYGBuJXNtqT-9" value="&lt;font style=&quot;color: rgb(77, 77, 77);&quot; face=&quot;Cascadia Code&quot;&gt;0&lt;/font&gt;" style="rounded=0;whiteSpace=wrap;html=1;strokeWidth=1;fillColor=#DFEAF2;fontSize=22;" parent="1" vertex="1">
          <mxGeometry x="5" y="915" width="120" height="40" as="geometry" />
        </mxCell>
        <mxCell id="w9sTjTR2EAYGBuJXNtqT-10" value="&lt;span style=&quot;color: rgb(77, 77, 77); font-family: &amp;quot;Cascadia Code&amp;quot;; font-size: 18px;&quot;&gt;&quot;pistachos&quot;&lt;/span&gt;" style="rounded=0;whiteSpace=wrap;html=1;strokeWidth=2;fillColor=#d5e8d4;strokeColor=#82b366;" parent="1" vertex="1">
          <mxGeometry x="245" y="955" width="120" height="70" as="geometry" />
        </mxCell>
        <mxCell id="w9sTjTR2EAYGBuJXNtqT-11" value="&lt;font style=&quot;color: rgb(77, 77, 77);&quot; face=&quot;Cascadia Code&quot;&gt;2&lt;/font&gt;" style="rounded=0;whiteSpace=wrap;html=1;strokeWidth=2;fillColor=#d5e8d4;fontSize=22;strokeColor=#82b366;" parent="1" vertex="1">
          <mxGeometry x="245" y="915" width="120" height="40" as="geometry" />
        </mxCell>
        <mxCell id="ZFJgFclsAG6WufjmMGgB-1" value="" style="group" vertex="1" connectable="0" parent="1">
          <mxGeometry x="275" y="780" width="200" height="120" as="geometry" />
        </mxCell>
        <mxCell id="ZFJgFclsAG6WufjmMGgB-2" value="" style="group" vertex="1" connectable="0" parent="ZFJgFclsAG6WufjmMGgB-1">
          <mxGeometry width="200" height="100" as="geometry" />
        </mxCell>
        <mxCell id="ZFJgFclsAG6WufjmMGgB-3" value="&lt;font style=&quot;font-size: 32px;&quot;&gt;🕵🏻&lt;/font&gt;" style="text;html=1;align=center;verticalAlign=middle;whiteSpace=wrap;rounded=0;" vertex="1" parent="ZFJgFclsAG6WufjmMGgB-2">
          <mxGeometry y="40" width="70" height="60" as="geometry" />
        </mxCell>
        <mxCell id="ZFJgFclsAG6WufjmMGgB-4" value="&lt;font style=&quot;color: rgb(77, 77, 77);&quot;&gt;&lt;span style=&quot;font-family: &amp;quot;Cascadia Code&amp;quot;; font-size: 18px;&quot;&gt;¿&lt;/span&gt;&lt;font style=&quot;font-family: &amp;quot;Cascadia Code&amp;quot;; font-size: 18px; color: rgb(77, 77, 77);&quot;&gt;&quot;pistachos&quot;&lt;/font&gt;&lt;span style=&quot;font-family: &amp;quot;Cascadia Code&amp;quot;; font-size: 18px;&quot;&gt;?&lt;/span&gt;&lt;/font&gt;" style="whiteSpace=wrap;html=1;shape=mxgraph.basic.roundRectCallout;dx=30;dy=15;size=5;boundedLbl=1;" vertex="1" parent="ZFJgFclsAG6WufjmMGgB-2">
          <mxGeometry x="40" width="160" height="60" as="geometry" />
        </mxCell>
        <mxCell id="ZFJgFclsAG6WufjmMGgB-5" value="" style="endArrow=classic;html=1;rounded=0;strokeWidth=2;strokeColor=#4D4D4D;" edge="1" parent="ZFJgFclsAG6WufjmMGgB-1">
          <mxGeometry width="50" height="50" relative="1" as="geometry">
            <mxPoint x="30.900000000000006" y="90" as="sourcePoint" />
            <mxPoint x="30.900000000000006" y="120" as="targetPoint" />
          </mxGeometry>
        </mxCell>
      </root>
    </mxGraphModel>
  </diagram>
</mxfile>
